<?xml version="1.0" encoding="UTF-8"?>
<svg id="Livello_2" data-name="Livello 2" xmlns="http://www.w3.org/2000/svg" viewBox="0 0 150 150">
  <defs>
    <style>
      .cls-1 {
        fill: #f0f4ef;
      }

      .cls-2 {
        fill: none;
        stroke: #f0f4ef;
        stroke-miterlimit: 10;
      }
    </style>
  </defs>
  <circle class="cls-1" cx="36.17" cy="38.36" r="2.71"/>
  <circle class="cls-1" cx="47" cy="50.01" r="2.71"/>
  <circle class="cls-1" cx="72.14" cy="45.85" r="2.71"/>
  <circle class="cls-1" cx="49.71" cy="78.63" r="2.71"/>
  <circle class="cls-1" cx="83.43" cy="81.34" r="2.71"/>
  <circle class="cls-1" cx="93.47" cy="86.77" r="2.71"/>
  <circle class="cls-1" cx="102.46" cy="92.2" r="2.71"/>
  <circle class="cls-1" cx="74.85" cy="120" r="2.71"/>
  <circle class="cls-1" cx="67.42" cy="124.45" r="2.71"/>
  <circle class="cls-1" cx="27.27" cy="9.65" r="3.8"/>
  <circle class="cls-1" cx="94.55" cy="32.85" r="3.8"/>
  <circle class="cls-1" cx="123.88" cy="118.92" r="3.8"/>
  <circle class="cls-1" cx="88.23" cy="136.6" r="3.8"/>
  <circle class="cls-1" cx="44.28" cy="100.48" r="3.8"/>
  <polyline class="cls-2" points="27.27 9.65 36.17 38.36 47 50.01 72.14 45.85 94.55 32.85"/>
  <polyline class="cls-2" points="88.23 136.6 74.85 120 67.42 124.45 44.28 100.48 49.71 78.63 47 50.01"/>
  <polyline class="cls-2" points="123.88 118.92 102.46 92.2 93.47 86.77 83.43 81.34 72.14 45.85"/>
  <line class="cls-2" x1="44.28" y1="100.48" x2="83.43" y2="81.34"/>
</svg>